<mxfile host="app.diagrams.net" modified="2020-08-28T04:36:06.316Z" agent="5.0 (Macintosh; Intel Mac OS X 10_15_6) AppleWebKit/537.36 (KHTML, like Gecko) Chrome/84.0.4147.105 Safari/537.36" etag="siRLeblPFhMHFNfCCjPI" version="13.6.5" type="github">
  <diagram id="tiNbwfVHrU3rleALvfvO" name="Page-1">
    <mxGraphModel dx="1837" dy="961" grid="1" gridSize="10" guides="1" tooltips="1" connect="1" arrows="1" fold="1" page="1" pageScale="1" pageWidth="850" pageHeight="1100" math="0" shadow="0">
      <root>
        <mxCell id="0" />
        <mxCell id="1" parent="0" />
        <mxCell id="NbFQiC-a6_RJZgWB6c9p-35" value="" style="rounded=0;whiteSpace=wrap;html=1;labelBackgroundColor=#ffffff;gradientColor=none;fontFamily=Courier New;" vertex="1" parent="1">
          <mxGeometry x="40" y="70" width="610" height="570" as="geometry" />
        </mxCell>
        <mxCell id="NbFQiC-a6_RJZgWB6c9p-43" value="" style="group;labelPosition=center;verticalLabelPosition=top;align=center;verticalAlign=bottom;" vertex="1" connectable="0" parent="1">
          <mxGeometry x="395" y="292" width="110" height="90" as="geometry" />
        </mxCell>
        <mxCell id="NbFQiC-a6_RJZgWB6c9p-1" value="/var/log/aws/{type}" style="html=1;verticalLabelPosition=bottom;align=center;labelBackgroundColor=#ffffff;verticalAlign=top;strokeWidth=2;strokeColor=#0080F0;shadow=0;dashed=0;shape=mxgraph.ios7.icons.folder;fontFamily=Courier New;" vertex="1" parent="NbFQiC-a6_RJZgWB6c9p-43">
          <mxGeometry width="110" height="90" as="geometry" />
        </mxCell>
        <mxCell id="NbFQiC-a6_RJZgWB6c9p-41" value="" style="rounded=0;whiteSpace=wrap;html=1;labelBackgroundColor=#ffffff;gradientColor=none;fontFamily=Courier New;strokeColor=none;" vertex="1" parent="NbFQiC-a6_RJZgWB6c9p-43">
          <mxGeometry x="5" y="18" width="100" height="60" as="geometry" />
        </mxCell>
        <mxCell id="NbFQiC-a6_RJZgWB6c9p-3" value="/var/log/scribe/{type}" style="html=1;verticalLabelPosition=bottom;align=center;labelBackgroundColor=#ffffff;verticalAlign=top;strokeWidth=2;strokeColor=#0080F0;shadow=0;dashed=0;shape=mxgraph.ios7.icons.folder;fontFamily=Courier New;" vertex="1" parent="1">
          <mxGeometry x="870" y="150" width="110" height="90" as="geometry" />
        </mxCell>
        <mxCell id="NbFQiC-a6_RJZgWB6c9p-4" value="/var/log/scribe/import/{type}" style="html=1;verticalLabelPosition=bottom;align=center;labelBackgroundColor=#ffffff;verticalAlign=top;strokeWidth=2;strokeColor=#0080F0;shadow=0;dashed=0;shape=mxgraph.ios7.icons.folder;fontFamily=Courier New;" vertex="1" parent="1">
          <mxGeometry x="920" y="300" width="110" height="90" as="geometry" />
        </mxCell>
        <mxCell id="NbFQiC-a6_RJZgWB6c9p-23" value="" style="group" vertex="1" connectable="0" parent="1">
          <mxGeometry x="120" y="240" width="150" height="156.0018443567806" as="geometry" />
        </mxCell>
        <mxCell id="NbFQiC-a6_RJZgWB6c9p-9" value="s3://sh-datalake/prod/{type}/yyyy/mm/dd" style="outlineConnect=0;fontColor=#232F3E;gradientColor=none;fillColor=#277116;strokeColor=none;dashed=0;verticalLabelPosition=bottom;verticalAlign=top;align=center;html=1;fontSize=12;fontStyle=0;aspect=fixed;pointerEvents=1;shape=mxgraph.aws4.bucket;" vertex="1" parent="NbFQiC-a6_RJZgWB6c9p-23">
          <mxGeometry width="150" height="156.0018443567806" as="geometry" />
        </mxCell>
        <mxCell id="NbFQiC-a6_RJZgWB6c9p-7" value="S3" style="outlineConnect=0;dashed=0;verticalLabelPosition=bottom;verticalAlign=top;align=center;html=1;shape=mxgraph.aws3.s3;fillColor=#E05243;gradientColor=none;fontFamily=Courier New;" vertex="1" parent="NbFQiC-a6_RJZgWB6c9p-23">
          <mxGeometry x="64.03" y="16.08" width="15.97" height="21.92" as="geometry" />
        </mxCell>
        <mxCell id="NbFQiC-a6_RJZgWB6c9p-16" value="JSON FILES" style="verticalLabelPosition=bottom;html=1;verticalAlign=top;align=center;strokeColor=none;fillColor=#00BEF2;shape=mxgraph.azure.code_file;pointerEvents=1;fontFamily=Courier New;labelBackgroundColor=#ffffff;fillOpacity=100;" vertex="1" parent="NbFQiC-a6_RJZgWB6c9p-23">
          <mxGeometry x="49.47487063886473" y="78.00049261083745" width="36.502894615502846" height="42.610837438423644" as="geometry" />
        </mxCell>
        <mxCell id="NbFQiC-a6_RJZgWB6c9p-34" value="/usr/local/bin/aws_xxxx_sync.sh" style="shape=image;html=1;verticalAlign=top;verticalLabelPosition=bottom;labelBackgroundColor=#ffffff;imageAspect=0;aspect=fixed;image=https://cdn2.iconfinder.com/data/icons/picol-vector/32/script-128.png;gradientColor=none;fontFamily=Courier New;" vertex="1" parent="1">
          <mxGeometry x="300" y="80" width="90" height="90" as="geometry" />
        </mxCell>
        <mxCell id="NbFQiC-a6_RJZgWB6c9p-36" style="edgeStyle=orthogonalEdgeStyle;rounded=0;orthogonalLoop=1;jettySize=auto;html=1;exitX=1;exitY=0.5;exitDx=0;exitDy=0;exitPerimeter=0;fontFamily=Courier New;shape=flexArrow;fillColor=#ffffff;" edge="1" parent="1" source="NbFQiC-a6_RJZgWB6c9p-16" target="NbFQiC-a6_RJZgWB6c9p-41">
          <mxGeometry relative="1" as="geometry">
            <mxPoint x="189.9777652543678" y="342.3059113300492" as="sourcePoint" />
            <mxPoint x="384" y="343" as="targetPoint" />
          </mxGeometry>
        </mxCell>
        <mxCell id="NbFQiC-a6_RJZgWB6c9p-37" value="aws sync" style="edgeLabel;html=1;align=center;verticalAlign=middle;resizable=0;points=[];fontFamily=Courier New;" vertex="1" connectable="0" parent="NbFQiC-a6_RJZgWB6c9p-36">
          <mxGeometry x="0.3206" y="1" relative="1" as="geometry">
            <mxPoint as="offset" />
          </mxGeometry>
        </mxCell>
        <mxCell id="NbFQiC-a6_RJZgWB6c9p-44" value="" style="group" vertex="1" connectable="0" parent="1">
          <mxGeometry x="395" y="465" width="110" height="90" as="geometry" />
        </mxCell>
        <mxCell id="NbFQiC-a6_RJZgWB6c9p-2" value="/var/log/aws_staging/{type}" style="html=1;verticalLabelPosition=bottom;align=center;labelBackgroundColor=#ffffff;verticalAlign=top;strokeWidth=2;strokeColor=#0080F0;shadow=0;dashed=0;shape=mxgraph.ios7.icons.folder;fontFamily=Courier New;" vertex="1" parent="NbFQiC-a6_RJZgWB6c9p-44">
          <mxGeometry width="110" height="90" as="geometry" />
        </mxCell>
        <mxCell id="NbFQiC-a6_RJZgWB6c9p-42" value="" style="rounded=0;whiteSpace=wrap;html=1;labelBackgroundColor=#ffffff;gradientColor=none;fontFamily=Courier New;strokeColor=none;" vertex="1" parent="NbFQiC-a6_RJZgWB6c9p-44">
          <mxGeometry x="5" y="20" width="100" height="60" as="geometry" />
        </mxCell>
        <mxCell id="NbFQiC-a6_RJZgWB6c9p-46" value="cat *.json" style="edgeStyle=orthogonalEdgeStyle;shape=flexArrow;rounded=0;orthogonalLoop=1;jettySize=auto;html=1;fontFamily=Courier New;fillColor=#ffffff;" edge="1" parent="1" target="NbFQiC-a6_RJZgWB6c9p-42">
          <mxGeometry relative="1" as="geometry">
            <mxPoint x="450" y="410" as="sourcePoint" />
          </mxGeometry>
        </mxCell>
      </root>
    </mxGraphModel>
  </diagram>
</mxfile>
